# xmcd
#
# Track frame offsets:
#	150
#	16228
#	37960
#	60063
#	78720
#	101855
#	123472
#	145229
#	165130
#	186945
#	205345
#	210416
#	230660
#	249035
#	271052
#	289630
#	313466
#
# Disc length: 4459 seconds
#
# Revision: 0
# Processed by: cddbd v1.5.2PL0 Copyright (c) Steve Scherf et al.
# Submitted via: EasyCDDAExtractor 9.0.0.1
#
DISCID=e5116911
DTITLE=Brandy - Very Best '99
DYEAR=1999
DGENRE=R&B
TTITLE0=Almost Doesn't Count
TTITLE1=Sittin' Up In My Room
TTITLE2=The Boy Is Mine
TTITLE3=Rock With You
TTITLE4=Never Say Never
TTITLE5=Angel In Disguise
TTITLE6=Learn The Hard Way
TTITLE7=U Don't Know Me
TTITLE8=Put That On Everything
TTITLE9=Happy
TTITLE10=In Tne Car (Interlude)
TTITLE11=Have You Ever
TTITLE12=One Voice
TTITLE13=Truthfully
TTITLE14=(Everything I Do) I Do It For You
TTITLE15=Tomorrow
TTITLE16=Top Of The World
EXTD=
EXTT0=
EXTT1=
EXTT2=
EXTT3=
EXTT4=
EXTT5=
EXTT6=
EXTT7=
EXTT8=
EXTT9=
EXTT10=
EXTT11=
EXTT12=
EXTT13=
EXTT14=
EXTT15=
EXTT16=
PLAYORDER=
